<?xml version="1.0" encoding="utf-8"?>
<!-- Generator: Adobe Illustrator 17.0.0, SVG Export Plug-In . SVG Version: 6.00 Build 0)  -->
<!DOCTYPE svg PUBLIC "-//W3C//DTD SVG 1.1//EN" "http://www.w3.org/Graphics/SVG/1.1/DTD/svg11.dtd">
<svg version="1.1" id="Layer_1" xmlns="http://www.w3.org/2000/svg" xmlns:xlink="http://www.w3.org/1999/xlink" x="0px" y="0px"
	 width="640px" height="247.407px" viewBox="0 0 640 247.407" enable-background="new 0 0 640 247.407" xml:space="preserve">
<pattern  x="-630.417" y="-428.88" width="28.42" height="28.42" patternUnits="userSpaceOnUse" id="Unnamed_Pattern_5" viewBox="0 -28.42 28.42 28.42" overflow="visible">
	<g>
		<polygon fill="none" points="0,-28.42 28.42,-28.42 28.42,0 0,0 		"/>
		<polygon fill="#BE3F27" points="28.42,-28.42 0,-28.42 0,0 28.42,0 		"/>
	</g>
</pattern>
<g>
	<path fill-rule="evenodd" clip-rule="evenodd" fill="#19498C" d="M236.118,182.842c-2.274-1.932-4.489-3.933-6.723-5.915
		c-1.379-1.221-2.177-2.735-2.325-4.599c-0.075-0.917,0.14-1.63,0.869-2.253c1.894-1.626,3.717-3.336,5.618-4.952
		c1.96-1.67,3.401-3.651,3.988-6.18c0.953-4.12,0.79-8.224-0.375-12.275c-0.763-2.652-2.537-4.364-5.182-5.19
		c-2.336-0.728-4.723-1.221-7.152-1.387c-7.237-0.499-14.487-0.296-21.732-0.127c-1.156,0-2.311-0.018-3.468,0.006
		c-4.627,0.091-9.256,0.08-13.878,0.366c-0.68,0.043-1.305,0.128-1.899,0.504c-1.284,0.816-2.572,1.634-3.909,2.358
		c-0.801,0.434-1.079,1.017-1.085,1.89c-0.034,3.104-0.163,6.209-0.166,9.316c-0.008,9.564,0.254,19.118,1.63,28.603
		c0.578,3.977,1.307,7.924,2.54,11.759c0.185,0.577,0.317,1.181,0.897,1.531c2.869,1.732,5.875,1.363,7.689-1.392
		c0.847-1.287,1.296-2.741,1.678-4.219c0.607-2.362,0.874-4.786,1.313-7.177c0.657-3.563,2.942-5.701,6.522-6.137
		c3.442-0.421,6.655,0.229,9.599,2.125c2.006,1.288,3.836,2.802,5.574,4.422c2.805,2.616,5.544,5.307,8.366,7.907
		c1.717,1.586,3.672,2.794,6.02,3.279c0.954,0.196,1.787,0.119,2.573-0.517c1.086-0.879,2.206-1.723,3.325-2.565
		c0.981-0.738,1.48-1.754,1.7-2.924C238.584,186.655,238.113,184.532,236.118,182.842 M224.709,157.38
		c-0.504,1.225-1.418,2.108-2.432,2.903c-2.345,1.832-5.044,2.893-7.919,3.531c-3.583,0.797-7.231,0.86-11.069,0.971
		c-2.415-0.185-5.032-0.138-7.63-0.475c-0.751-0.097-1.187-0.401-1.547-1.043c-0.624-1.118-1.195-2.253-1.666-3.441
		c-0.546-1.373-0.433-2.745,0.059-4.096c0.468-1.283,1.367-2.138,2.704-2.486c1.006-0.26,2.027-0.355,3.071-0.347
		c6.566,0.052,13.134,0.184,19.696,0.058c2.354-0.044,4.272,0.641,6.08,1.957C225.118,155.684,225.224,156.131,224.709,157.38"/>
	<path fill-rule="evenodd" clip-rule="evenodd" fill="#19498C" d="M388.248,141.982c-2.334-2.752-5.156-3.587-8.243-0.968
		c-0.139,0.116-0.275,0.244-0.431,0.335c-1.4,0.799-1.758,2.058-1.679,3.574c0.456,8.704,0.246,17.416,0.397,26.125
		c0.018,1.169-0.436,1.966-1.376,2.749c-0.381-0.336-0.661-0.566-0.922-0.814c-6.141-5.836-12.184-11.769-17.944-17.982
		c-4.819-5.198-10.021-9.959-15.794-14.083c-0.537-0.387-1.055-0.791-1.77-0.876c-2.809-0.33-5.501,0.997-6.937,3.477
		c-0.806,1.392-1.191,2.917-1.447,4.492c-0.851,5.212-0.689,10.457-0.213,15.671c0.712,7.793,0.437,15.566-0.006,23.352
		c-0.14,2.432-0.26,4.865-0.307,7.3c-0.032,1.71,0.623,2.426,2.297,2.735c0.477,0.088,0.969,0.122,1.454,0.129
		c2.377,0.04,4.748-0.014,7.108-0.356c1.668-0.246,1.676-0.214,1.676-1.95c0-3.656-0.024-7.311-0.004-10.968
		c0.021-3.956-0.122-7.922,0.441-11.86c0.281-1.956,0.495-3.937,1.435-5.666c1.738,1.673,3.455,3.22,5.058,4.879
		c7.58,7.845,15.738,15.101,23.398,22.867c1.024,1.04,2.133,2.007,3.377,2.79c1.254,0.789,2.588,1.272,4.107,1.34
		c3.537,0.155,6.179-1.481,8.434-3.989c0.477-0.529,0.645-1.119,0.64-1.832c-0.024-3.839-0.012-7.676-0.008-11.515
		c0.006-7.067,0.115-14.126,0.634-21.18c0.273-3.712,0.093-7.43-0.624-11.098C390.529,146.258,389.879,143.905,388.248,141.982"/>
	<path fill-rule="evenodd" clip-rule="evenodd" fill="#19498C" d="M86.299,156.714c0-4.752-0.026-9.504,0.02-14.253
		c0.012-1.03-0.369-1.559-1.314-1.866c-3.152-1.017-8.733-0.74-11.598,3.178c-1.122,1.537-2.07,3.159-2.837,4.886
		c-2.001,4.51-3.733,9.118-5.12,13.856c-0.548,1.868-1.171,3.716-1.862,5.534c-0.696,1.829-1.627,3.538-3.04,4.944
		c-2.6,2.58-7.553,3.527-10.862-0.337c-0.67-0.783-1.264-1.642-1.809-2.518c-1.192-1.919-2.115-3.978-2.922-6.083
		c-1.716-4.488-3.383-8.998-5.103-13.487c-1.056-2.756-2.511-5.272-4.645-7.357c-3.111-3.038-6.867-4.018-11.087-3.455
		c-1.506,0.202-1.53,0.287-1.432,1.895c0.207,3.341,0.529,6.681,0.62,10.026c0.251,9.081,0.112,18.156-0.552,27.219
		c-0.186,2.558-0.244,5.116-0.064,7.675c0.165,2.377,0.568,4.717,1.689,6.869c1.236,2.379,3.494,2.898,5.636,1.318
		c0.644-0.474,1.168-1.071,1.642-1.71c0.995-1.344,1.556-2.888,1.959-4.489c1.076-4.268,1.612-8.622,1.832-13.004
		c0.068-1.35,0.936-1.763,1.809-2.239c0.783-0.427,1.177,0.396,1.633,0.805c2.12,1.901,3.577,4.296,4.908,6.771
		c1.819,3.382,3.456,6.849,4.927,10.395c0.612,1.472,1.373,2.851,2.538,3.975c3.116,3.011,7.894,2.424,10.117-1.264
		c0.439-0.727,0.815-1.496,1.199-2.256c2.584-5.107,5.082-10.255,7.969-15.203c0.458-0.786,0.946-1.561,1.473-2.306
		c0.358-0.508,0.84-0.875,1.528-0.856c1.131,0.033,1.672,0.597,1.7,1.884c0.07,3.289-0.026,6.582,0.428,9.854
		c0.378,2.73,0.96,5.382,2.398,7.791c0.863,1.441,2.114,2.136,3.734,2.256c0.852,0.062,1.7,0,2.546-0.163
		c1.659-0.314,1.676-0.296,1.589-1.946c-0.228-4.439-0.474-8.89-0.245-13.334C86.1,172.055,86.519,164.393,86.299,156.714"/>
	<path fill-rule="evenodd" clip-rule="evenodd" fill="#19498C" d="M612.022,146.502c-4.847-4.44-10.538-6.897-16.883-6.995
		c-1.272,0.07-2.246,0.119-3.216,0.187c-0.364,0.023-0.729,0.077-1.087,0.142c-7.754,1.441-14.501,4.893-20.156,10.366
		c-6.517,6.307-10.021,13.868-8.861,23.123c0.841,6.707,3.516,12.629,8.847,16.894c9.823,7.861,20.905,9.41,32.452,4.753
		c11.194-4.511,17.832-12.902,18.455-25.305C622.033,160.505,618.81,152.721,612.022,146.502 M608.628,177.169
		c-1.41,1.771-3.087,3.278-4.737,4.814c-0.435,0.405-0.92,0.526-1.478,0.588c-2.06,0.228-4.127,0.301-6.199,0.267
		c-3.73,0.081-7.425-0.198-11.051-1.113c-6.862-1.732-10.563-7.473-10.241-13.519c0.211-4.006,1.731-7.436,4.334-10.407
		c6.059-6.921,17.639-7.885,24.656-2.094c1.571,1.297,2.805,2.873,3.79,4.644c1.583,2.854,2.54,5.923,3.046,9.133
		C611.198,172.352,610.427,174.906,608.628,177.169"/>
	<path fill-rule="evenodd" clip-rule="evenodd" fill="#19498C" d="M544.789,183.631c-1.235-5.365-3.274-10.442-5.592-15.412
		c-3.981-8.539-8.823-16.539-15.12-23.595c-1.626-1.819-3.344-3.551-5.514-4.741c-2.62-1.439-5.126-1.304-7.492,0.565
		c-0.526,0.414-1.028,0.858-1.516,1.314c-2.361,2.212-3.913,4.965-5.128,7.913c-2.04,4.947-3.913,9.968-6.043,14.876
		c-3.71,8.537-7.809,16.901-11.873,25.277c-1.51,3.115,0.224,7.086,3.484,8.201c0.777,0.265,1.19,0.181,1.567-0.615
		c2.435-5.133,6.582-8.311,11.795-10.277c2.993-1.133,6.101-1.687,9.258-1.966c7.354-0.642,13.893,1.077,19.073,6.699
		c0.903,0.979,1.951,1.834,2.975,2.698c0.932,0.79,1.976,1.419,3.13,1.844c2.035,0.75,3.81,0.413,5.335-1.189
		c1.801-1.892,2.385-4.185,2.287-6.615C545.438,186.852,545.16,185.238,544.789,183.631 M521.654,170.717
		c-0.316,0.808-0.749,1.344-1.743,1.236c-0.72-0.079-1.455-0.017-2.183-0.017c-1.939-0.086-3.864-0.348-5.817-0.276
		c-2.224,0.083-3.244-1.429-2.432-3.455c0.771-1.924,1.188-3.946,1.781-5.916c0.138-0.467,0.256-0.938,0.413-1.397
		c0.637-1.881,2.337-2.663,4.152-1.889c0.255,0.107,0.464,0.382,0.628,0.624c1.768,2.615,3.536,5.228,4.868,8.103
		C521.762,168.678,522.066,169.653,521.654,170.717"/>
	<path fill-rule="evenodd" clip-rule="evenodd" fill="#19498C" d="M309.097,171.468c-4.132-9.624-9.334-18.6-16.259-26.509
		c-1.609-1.839-3.321-3.573-5.432-4.853c-2.885-1.747-5.481-1.578-8.102,0.515c-0.476,0.378-0.919,0.798-1.363,1.216
		c-2.313,2.173-3.836,4.872-5.03,7.76c-1.721,4.159-3.303,8.374-5.045,12.527c-3.933,9.371-8.462,18.468-12.867,27.624
		c-1.518,3.152,0.107,7.049,3.37,8.249c0.869,0.318,1.282,0.185,1.688-0.675c2.187-4.632,5.881-7.673,10.492-9.693
		c3.557-1.56,7.326-2.206,11.167-2.499c7.275-0.554,13.599,1.442,18.633,6.932c1.029,1.126,2.177,2.131,3.435,3.002
		c0.852,0.588,1.728,1.131,2.731,1.448c1.846,0.579,3.457,0.28,4.874-1.105c1.929-1.884,2.567-4.212,2.488-6.817
		c-0.024-0.972-0.073-1.939-0.233-2.908C312.823,180.721,311.068,176.057,309.097,171.468 M290.158,170.543
		c-0.393,1.169-0.697,1.399-1.974,1.385c-0.667-0.01-1.337-0.003-2.005-0.003c-1.939-0.052-3.862-0.329-5.815-0.264
		c-2.433,0.087-3.34-1.857-2.391-3.643c0.769-1.45,1.016-3.104,1.449-4.68c0.273-0.995,0.518-2,0.871-2.964
		c0.443-1.207,0.939-1.445,2.195-1.499c1.379-0.059,2.335,0.338,3.084,1.636c1.365,2.362,2.986,4.572,4.132,7.061
		C290.137,168.512,290.521,169.465,290.158,170.543"/>
	<path fill-rule="evenodd" clip-rule="evenodd" fill="#19498C" d="M161.957,186.166c-0.254-1.438-0.532-2.877-0.931-4.278
		c-2.815-9.991-7.384-19.167-13.037-27.828c-2.636-4.036-5.554-7.861-8.988-11.265c-1.303-1.29-2.702-2.453-4.389-3.234
		c-2.171-1.001-4.264-0.852-6.244,0.457c-0.755,0.501-1.441,1.122-2.109,1.739c-2.609,2.421-4.185,5.513-5.509,8.737
		c-1.919,4.673-3.66,9.419-5.671,14.047c-3.713,8.538-7.819,16.895-11.871,25.276c-1.525,3.155,0.155,7.043,3.452,8.197
		c0.744,0.26,1.184,0.265,1.576-0.575c2.13-4.578,5.724-7.637,10.261-9.685c3.486-1.572,7.183-2.283,10.959-2.6
		c7.22-0.604,13.652,1.104,18.777,6.559c0.832,0.889,1.745,1.7,2.666,2.497c1.017,0.879,2.124,1.642,3.381,2.142
		c2.234,0.894,3.991,0.496,5.635-1.247c1.75-1.853,2.283-4.106,2.196-6.572C162.064,187.742,162.095,186.938,161.957,186.166
		 M136.315,171.93c-1.275-0.021-2.548-0.004-3.821-0.004c-1.209-0.3-2.422-0.355-3.637-0.256c-2.28,0.182-3.78-1.579-2.633-3.743
		c0.91-1.718,1.137-3.701,1.695-5.557c0.122-0.406,0.228-0.818,0.358-1.221c0.704-2.16,2.062-2.862,4.158-2.167
		c0.383,0.124,0.574,0.427,0.773,0.727c1.678,2.529,3.38,5.041,4.694,7.787c0.366,0.767,0.707,1.555,0.629,2.439
		C138.41,171.334,137.702,171.952,136.315,171.93"/>
	<path fill-rule="evenodd" clip-rule="evenodd" fill="#19498C" d="M497.293,130.343c1.344,1.729,2.076,1.863,4.002,0.811
		c2.514-1.368,5.067-2.616,7.883-3.279c1.707-0.403,3.162-0.144,4.675,0.79c3.156,1.95,6.634,2.991,10.976,3.077
		c2.757,0.165,5.443-1.475,8.156-3.168c3.116-1.948,3.933-4.903,4.017-8.272c0.028-1.034-0.41-1.756-1.35-2.16
		c-1.034-0.446-1.369,0.438-1.862,1.012c-1.55,1.815-3.214,3.498-5.362,4.615c-2.071,1.077-4.157,1.273-6.262,0.062
		c-1.158-0.669-2.345-1.284-3.504-1.95c-1.581-0.907-3.119-1.9-4.806-2.604c-1.729-0.722-3.478-1.018-5.289-0.171
		c-4.356,2.031-8.532,4.401-12.768,6.658c-0.731,0.388-0.718,0.818-0.391,1.466C495.958,128.315,496.545,129.379,497.293,130.343"/>
	<path fill-rule="evenodd" clip-rule="evenodd" fill="#29498C" d="M420.284,209.602c-0.425-0.017-0.852-0.03-1.277-0.03
		c-15.299-0.004-124.479-0.006-139.78-0.008H175.173v0.01h-79.55c-23.531,0-47.061-0.004-70.591,0.012
		c-0.626,0-1.648-0.395-1.547,0.876c0.087,1.1,1.02,0.646,1.574,0.649c5.484,0.044,10.968,0.037,16.451,0.037
		c26.082,0.007,52.161,0.015,78.245,0.015c27.422,0,54.843-0.011,82.265-0.019c22.666-0.006,45.33-0.022,67.996-0.019
		c18.28,0.001,130.438,0.022,148.719,0.03c0.547,0.003,1.098-0.008,1.638-0.087c0.487-0.072,0.439-0.5,0.431-0.863
		C420.795,209.861,420.667,209.614,420.284,209.602"/>
	<path fill-rule="evenodd" clip-rule="evenodd" fill="#29498C" d="M502.893,217.127c-0.002-2.131-0.016-4.264-0.006-6.397
		c0.003-0.658,0.008-1.195-0.92-1.184c-0.977,0.01-0.849,0.645-0.851,1.243c-0.004,1.28-0.001,2.558-0.001,3.839v10.531
		c-0.11,0.032-0.218,0.064-0.326,0.097c-0.293-0.384-0.588-0.767-0.877-1.153c-3.269-4.4-6.538-8.798-9.806-13.197
		c-0.253-0.343-0.501-0.691-0.774-1.017c-0.371-0.441-0.89-0.373-1.359-0.282c-0.603,0.117-0.411,0.662-0.415,1.044
		c-0.021,2.435-0.017,4.873-0.017,7.31c0,3.231-0.004,6.46,0.014,9.689c0.004,0.908,0.403,1.189,1.211,0.995
		c0.724-0.177,0.496-0.745,0.496-1.187c0.008-4.261-0.01-8.524,0.001-12.786c0.003-0.5-0.236-1.082,0.263-1.489
		c0.393,0.061,0.506,0.361,0.678,0.593c2.64,3.578,5.274,7.155,7.914,10.734c0.869,1.175,1.766,2.331,2.61,3.523
		c0.436,0.616,0.968,0.952,1.701,0.733c0.755-0.225,0.459-0.909,0.46-1.403C502.909,223.951,502.897,220.538,502.893,217.127"/>
	<path fill-rule="evenodd" clip-rule="evenodd" fill="#29498C" d="M592.952,209.31c-5.286-0.012-9.834,3.893-9.892,9.562
		c-0.061,6.086,4.051,10.237,9.937,10.296c5.647,0.057,9.838-4.19,9.857-9.758C603.063,213.853,598.751,209.321,592.952,209.31
		 M592.785,227.465c-4.558-0.065-7.962-3.616-7.919-8.263c0.046-4.897,3.559-8.48,8.231-8.393c4.725,0.082,8.218,3.727,8.157,8.505
		C601.195,224.064,597.594,227.528,592.785,227.465"/>
	<path fill-rule="evenodd" clip-rule="evenodd" fill="#29498C" d="M563.406,211.063c0-0.246-0.015-0.489,0-0.731
		c0.038-0.688-0.367-0.782-0.928-0.761c-1.035,0.039-0.705,0.818-0.709,1.34c-0.02,4.804-0.012,9.607-0.012,14.411
		c-0.094,0.043-0.187,0.086-0.282,0.13c-1.007-1.355-2.017-2.707-3.022-4.067c-2.722-3.667-5.447-7.331-8.146-11.013
		c-0.443-0.602-0.941-0.995-1.678-0.753c-0.735,0.242-0.399,0.934-0.401,1.416c-0.03,4.202-0.018,8.405-0.018,12.609
		c0.001,1.401,0,2.801,0.005,4.203c0.001,0.367,0.012,0.756,0.525,0.772c0.351,0.011,0.801,0.146,0.967-0.264
		c0.129-0.318,0.092-0.711,0.092-1.072c0.006-4.328-0.005-8.65,0.014-12.976c0.003-0.442-0.205-0.95,0.299-1.432
		c0.381,0.509,0.735,0.981,1.086,1.459c3.37,4.547,6.746,9.093,10.099,13.657c0.443,0.603,0.95,1.005,1.682,0.762
		c0.717-0.238,0.422-0.932,0.424-1.428C563.419,221.904,563.409,216.482,563.406,211.063"/>
	<path fill-rule="evenodd" clip-rule="evenodd" fill="#29498C" d="M435.867,209.894c-2.951-0.595-5.943-0.239-8.916-0.312
		c-1.238-0.031-1.263,0.025-1.269,1.341c-0.017,2.738-0.006,5.474-0.006,8.212c0,2.799,0.032,5.597-0.019,8.396
		c-0.014,0.881,0.262,1.164,1.139,1.14c1.946-0.057,3.893-0.012,5.838-0.019c1.216-0.005,2.435,0.064,3.634-0.218
		c4.493-1.068,7.341-4.927,7.166-9.499C443.263,214.442,440.279,210.777,435.867,209.894 M441.795,219.792
		c-0.287,4.241-3.538,7.273-7.861,7.31c-1.705,0.017-3.41-0.003-5.113-0.012c-1.635-0.007-1.556,0.075-1.553-1.633
		c0.002-2.131,0-4.263,0-6.396c0-2.253,0.017-4.506-0.008-6.76c-0.008-0.699,0.092-1.191,0.957-1.169
		c2.308,0.065,4.627-0.193,6.926,0.193C439.34,212.035,442.084,215.534,441.795,219.792"/>
	<path fill-rule="evenodd" clip-rule="evenodd" fill="#29498C" d="M615.799,219.111c-1.234-0.497-2.544-0.804-3.817-1.207
		c-1.098-0.35-2.235-0.615-3.214-1.261c-1.718-1.137-1.817-3.352-0.193-4.611c2.057-1.597,6.918-1.782,8.386,1.934
		c0.28,0.709,0.521,0.794,1.155,0.601c0.816-0.247,0.584-0.765,0.408-1.285c-0.836-2.462-3.333-4.069-6.314-4.079
		c-1.3-0.017-2.549,0.253-3.699,0.839c-1.75,0.894-2.832,2.248-2.832,4.319c0,2.09,1.313,3.176,2.995,3.952
		c1.496,0.692,3.1,1.065,4.685,1.481c0.89,0.235,1.722,0.58,2.511,1.054c2.346,1.406,2.029,4.429,0.041,5.775
		c-3.107,2.108-7.443,0.804-8.762-2.705c-0.183-0.49-0.245-0.934-0.962-0.692c-0.631,0.214-0.879,0.488-0.672,1.187
		c0.489,1.653,1.382,2.986,2.935,3.779c2.679,1.362,5.415,1.326,8.062-0.017c1.668-0.848,2.665-2.272,2.728-4.231
		C619.313,221.713,618.205,220.079,615.799,219.111"/>
	<path fill-rule="evenodd" clip-rule="evenodd" fill="#29498C" d="M482.26,227.084c-2.861-0.011-5.724-0.023-8.584,0.014
		c-0.83,0.012-1.223-0.189-1.195-1.106c0.057-1.886,0.065-3.774,0.012-5.659c-0.026-0.923,0.367-1.138,1.193-1.118
		c1.764,0.041,3.53,0.01,5.297,0.01c0.486,0,0.974-0.006,1.46-0.001c0.582,0.001,0.704-0.359,0.682-0.843
		c-0.018-0.401-0.128-0.72-0.611-0.727c-0.366-0.004-0.731-0.004-1.097-0.004c-1.947,0-3.896-0.023-5.844,0.012
		c-0.758,0.014-1.105-0.195-1.07-1.019c0.05-1.276,0.006-2.555,0.01-3.835c0.003-1.582,0.005-1.593,1.56-1.6
		c2.68-0.011,5.358-0.01,8.038,0.004c0.674,0.002,1.2-0.057,1.139-0.964c-0.061-0.902-0.708-0.671-1.198-0.673
		c-3.411-0.019-6.818,0.006-10.23-0.026c-0.771-0.006-1.084,0.227-1.068,1.035c0.039,1.946,0.006,3.897,0.004,5.844v12.229h2.799
		c2.922,0,5.847-0.014,8.769,0.012c0.743,0.006,1.182-0.164,1.06-1.015C483.281,226.918,482.71,227.085,482.26,227.084"/>
	<path fill-rule="evenodd" clip-rule="evenodd" fill="#29498C" d="M522.915,224.342c-2.908,3.676-8.603,4.219-12.048,1.148
		c-3.506-3.126-3.656-8.942-0.318-12.27c3.203-3.195,8.864-2.986,11.957,0.441c1.031,1.14,1.031,1.14,2.491,0.446
		c-2.189-3.951-6.853-5.78-11.456-4.495c-4.442,1.243-7.251,5.407-6.972,10.334c0.253,4.5,3.491,8.269,7.718,8.983
		c4.908,0.832,9.225-1.264,10.876-5.274C523.849,223.158,523.849,223.158,522.915,224.342"/>
	<path fill-rule="evenodd" clip-rule="evenodd" fill="#29498C" d="M535.893,209.596c-0.808-0.028-0.997,0.495-1.254,1.073
		c-1.774,4-3.57,7.992-5.355,11.989c-0.858,1.927-1.702,3.862-2.569,5.826c1.708,0.207,1.715,0.211,2.289-1.068
		c0.501-1.108,0.999-2.217,1.473-3.338c0.262-0.624,0.64-0.934,1.371-0.923c2.68,0.037,5.36,0.029,8.037,0.006
		c0.644-0.004,0.997,0.245,1.238,0.833c0.458,1.127,0.974,2.229,1.472,3.339c0.593,1.316,0.595,1.316,2.395,1.228
		c-2.708-6.083-5.349-12.012-7.99-17.942C536.78,210.122,536.619,209.622,535.893,209.596 M531.618,221.529
		c1.388-3.201,2.723-6.277,4.188-9.658c1.467,3.337,2.816,6.409,4.243,9.658H531.618z"/>
	<path fill-rule="evenodd" clip-rule="evenodd" fill="#29498C" d="M459.225,227.096c-0.364-0.008-0.73-0.012-1.095-0.012
		c-2.558,0.001-5.116,0.012-7.671,0.006c-1.555-0.004-1.564-0.012-1.571-1.626c-0.01-1.521-0.01-3.043,0.002-4.564
		c0.01-1.665,0.018-1.674,1.734-1.68c2.008-0.011,4.018-0.018,6.027,0.004c0.703,0.007,1.002-0.251,0.92-0.968
		c-0.067-0.616-0.492-0.598-0.924-0.598c-2.069-0.003-4.141,0.008-6.21-0.006c-1.526-0.009-1.535-0.02-1.548-1.457
		c-0.012-1.155-0.012-2.312-0.002-3.467c0.014-1.506,0.022-1.53,1.51-1.536c2.739-0.017,5.48,0,8.218-0.004
		c0.553,0,1.113,0.068,1.12-0.786c0.004-0.816-0.493-0.833-1.081-0.83c-3.411,0.006-6.82,0.029-10.229-0.017
		c-0.881-0.01-1.159,0.271-1.145,1.146c0.045,2.799,0.017,5.6,0.017,8.4c0,2.803,0.028,5.603-0.019,8.404
		c-0.012,0.855,0.22,1.181,1.122,1.158c2.31-0.054,4.625-0.017,6.94-0.017c1.277,0,2.555-0.007,3.835-0.007
		c0.442,0,0.662-0.2,0.662-0.656C459.832,227.538,459.843,227.106,459.225,227.096"/>
	<path fill-rule="evenodd" clip-rule="evenodd" fill="#29498C" d="M580.377,209.567c-4.261,0.01-8.521,0.004-12.78,0
		c-0.512,0-0.956-0.007-0.972,0.731c-0.018,0.776,0.394,0.902,1.022,0.896c1.339-0.014,2.68-0.019,4.018-0.001
		c1.417,0.017,1.437,0.029,1.445,1.391c0.015,2.434,0.003,4.868,0.003,7.303h0.006c0,2.432-0.021,4.868,0.019,7.302
		c0.008,0.554-0.43,1.43,0.755,1.46c1.278,0.03,0.847-0.903,0.906-1.542c0.052-0.541,0.015-1.094,0.015-1.642
		c0.001-4.077,0.001-8.155,0.001-12.232c-0.001-2.26-0.106-2.014,2.102-2.035c1.155-0.011,2.31-0.007,3.466-0.001
		c0.568,0.001,0.916-0.157,0.905-0.827C581.28,209.706,580.952,209.566,580.377,209.567"/>
	<path fill-rule="evenodd" clip-rule="evenodd" fill="#19498C" d="M468.949,187.485c-1.085-3.296-2.044-6.637-2.641-10.055
		c-1.502-8.586-2.162-17.271-2.904-25.94c-0.492-5.76-0.398-5.77-3.615-10.35c-1.065-1.518-1.296-1.597-2.937-0.666
		c-2.364,1.344-3.73,3.451-4.371,6.039c-0.873,3.52-1.006,7.104-0.845,10.708c0.109,2.417-0.493,3.441-2.71,4.408
		c-1.564,0.682-3.188,1.217-4.878,1.455c-6.86,0.967-13.723,0.852-20.58-0.018c-2.361-0.298-3.281-1.294-3.577-3.663
		c-0.387-3.091-0.329-6.202-0.271-9.306c0-1.826-0.003-3.654,0.002-5.483c0.008-2.739-0.566-3.58-3.109-4.662
		c-1.417-0.602-2.78-0.532-3.952,0.439c-3.045,2.525-5.103,5.523-4.539,9.77c0.367,2.774,0.755,5.558,0.855,8.352
		c0.149,4.252,0.29,8.505,0.414,12.758c-0.051,1.517-0.095,3.033-0.148,4.55c-0.129,3.578-0.625,7.144-1.095,10.697
		c-0.722,5.442,1.913,9.281,5.815,12.516c1.5,1.243,3.247,1.334,5.061,0.562c3.258-1.385,3.993-2.463,3.982-5.972
		c-0.007-2.343-0.003-4.684-0.003-7.024c-0.058-3.064-0.112-6.133,0.093-9.193c0.232-0.323,0.523-0.605,0.914-0.815
		c1.527-0.821,3.4-0.85,5.152-1.061c0.061-0.006,0.123-0.001,0.183-0.012c4.134-0.67,8.268-0.185,12.392,0.102
		c2.853,0.2,5.686,0.662,8.535,0.891c1.041,0.082,1.3,0.562,1.373,1.457c0.146,1.819,0.296,3.643,0.548,5.448
		c0.451,3.261,1.072,6.494,2.523,9.487c0.799,1.651,1.747,3.223,3.119,4.467c1.275,1.158,2.388,1.153,3.778,0.135
		c0.696-0.511,1.262-1.149,1.783-1.823c1.679-2.167,3.353-4.344,5.315-6.266C469.254,188.789,469.202,188.256,468.949,187.485"/>
	<path fill="#FFDD15" d="M111.157,47.731c0,0-0.705,39.52-0.705,42.042c0,2.985-0.078,4.147,0.783,4.562
		c0.53,0.254,1.711,0.383,3.326,0.393c1.325,0.008,1.867-1.244,1.954-1.68c0.207-1.039,0.143-2.219,0.199-3.855
		c0.067-2.004,0.026-38.642,0.261-40.466c0,0,0.47-1.16-0.078-1.16c-0.548,0-4.566-0.249-4.566-0.249S110.843,47.069,111.157,47.731
		"/>
	<pattern  id="SVGID_1_" xlink:href="#Unnamed_Pattern_5" patternTransform="matrix(0.469 0 0 -0.469 -1952.1757 -2029.0631)">
	</pattern>
	<path fill-rule="evenodd" clip-rule="evenodd" fill="url(#SVGID_1_)" d="M599.216,100.164c-2.604-1.545-5.45-2.526-8.29-3.519
		c-3.351-1.174-6.704-2.326-9.814-4.082c-4.995-2.819-13.824-8.594-8.353-37.242c0.305-1.597,0.385-2.591-1.093-2.94
		c-7.01-1.647-51.652-3.724-61.635-2.49c-5.624,0.693-5.274,3.538-5.403,5.013c-0.448,5.135-3.795,27.904-25.895,40.961
		c0,0-6.81,3.35-8.929,4.131c-2.12,0.78,0.782,1.896,5.583,0.892c3.888-0.813,39.737-3.018,68.873-3.113
		c11.125,0.163,22.246,0.547,33.357,1.261c6.787,0.439,13.57,1.017,20.293,2.136c0.866,0.145,1.764,0.453,2.663,0.109
		C600.376,100.605,599.715,100.461,599.216,100.164"/>
	<pattern  id="SVGID_2_" xlink:href="#Unnamed_Pattern_5" patternTransform="matrix(0.469 0 0 -0.469 -1952.1757 -2029.0631)">
	</pattern>
	<path fill-rule="evenodd" clip-rule="evenodd" fill="url(#SVGID_2_)" d="M600.575,101.28c0.004,0.007,0.012,0.011,0.013,0.019
		l0.049-0.034C600.616,101.272,600.596,101.27,600.575,101.28"/>
	<pattern  id="SVGID_3_" xlink:href="#Unnamed_Pattern_5" patternTransform="matrix(0.469 0 0 -0.469 -1952.1757 -2029.9028)">
	</pattern>
	<path fill="url(#SVGID_3_)" d="M135.342,24.541c0,0-0.589-1.768-2.441-0.422c-1.249,0.909-12.789,5.681-21.029,8.72
		c-3.983,1.47-5.19,1.94-9.358,2.858c-0.816,0.18,0.344,1.34,3.445,1.219c3.034-0.117,56.97,0.317,58.495,0.337
		c2.173,0.029,3.057-1.579-1.096-1.852C161.672,35.291,143.424,33.045,135.342,24.541"/>
	
		<pattern  id="SVGID_4_" xlink:href="#Unnamed_Pattern_5" patternTransform="matrix(0.4653 0.0037 0.0038 -0.469 -1986.7922 -2014.3644)">
	</pattern>
	<path fill="url(#SVGID_4_)" d="M105.492,70.862c0,0,0.233-2.859-1.615-1.61c-1.846,1.247-33.296,22.487-64.055,25.019
		c0,0-2.842,0.315-2.095,0.826c0.746,0.51,15.361,0.881,20.377,0.416c5.016-0.466,13.179-0.905,19.357-0.436
		c5.214,0.397,21.208,0.281,26.27-0.168c0.934-0.083,2.645-1.385,2.163-3.813C105.584,89.533,105.492,70.862,105.492,70.862"/>
	<path fill="#26A9E0" d="M147.405,91.044c1.031-0.149,3.077-0.54,3.466-3.383c0.179-6.962,0.552-26.113-0.044-34.738
		c-0.253-3.664-2.349-5.539-4.226-5.539c-1.525,0-18.355,0.095-24.594,0.131c-1.434,0.009-2.813,0.014-3.03,2.753
		c-0.181,2.29-0.764,30.922-0.952,40.313l-0.076,1.809c0,0,0.018,0.951-0.187,1.494c-0.082,0.213-0.155,0.483-0.043,0.603
		c0.201,0.211,1.325,0.496,2.836,0.533c1.553,0.04,1.595-0.047,2.292-0.042c0,0,0.984,0.086,0.434-1.378
		c-0.551-1.466-0.727-1.654-0.892-3.253c-0.011-0.101-0.027-0.191-0.048-0.269c0.022-0.804,0.035-1.792,0.042-2.9
		c-0.015-0.058-0.021-0.097-0.021-0.097s0.009,0.04,0.021,0.096c0.05-8.426-0.302-24.176-0.246-25.122
		c0.051-0.893-0.767-5.802,2.766-6.379c2.65-0.432,11.302-0.276,15.747-0.219c4.286,0.055,5.232,1.881,5.232,4.117
		c0,2.123,0.586,27.686,0.644,30.54C146.65,90.684,146.906,91.117,147.405,91.044"/>
	<path fill="#FFDD15" d="M153.125,89.564c1.356-0.185,4.064-0.528,4.306-3.255c-0.167-9.176-0.666-35.887-0.369-37.664
		c0.332-1.989,0.201-3.731,2.109-5.887c1.906-2.156,4.061-4.19,1.636-4.229c-2.162-0.036-52.075-0.416-53.401-0.497
		c-1.327-0.084-1.989,0.497,0,1.823c1.99,1.328,4.095,2.912,3.928,4.405c-0.164,1.494-0.412,1.494,2.487,1.575
		c2.904,0.083,7.797-0.081,10.866-0.081c2.283,0,15.087-0.156,21.402-0.11c2.17,0.016,5.932,0.019,6.013,5.906
		c0.082,5.887,0.249,28.809,0,33.039c-0.059,1.007-0.138,2.113-0.208,3.213C151.972,88.593,152.239,89.685,153.125,89.564"/>
	<path fill="#FFDD15" d="M125.577,90.018c1.537,0.617,1.991-0.587,2.11-1.656c0.053-7.728,0.156-23.016,0.156-23.682
		c0-0.892-0.311-2.674,0.123-2.674c0.433,0,11.386,0,11.82,0.126c0.431,0.127,0.246,0.765,0.308,1.719
		c0.054,0.833,0.25,22.107,0.299,27.573c0.217,0.274,0.481,0.441,0.805,0.397c1.149-0.159,3.24-0.054,4.05-2.139
		c-0.023-0.38-0.049-0.771-0.081-1.187c-0.349-4.574-0.37-24.581-0.37-25.342c0-1.911-0.102-6.01-4.765-5.668
		c-2.406,0.177-12.068-0.064-13.986,0c-1.92,0.064-3.153,2.355-2.842,4.904c0.227,1.873,0.02,17.714-0.106,25.973
		C123.536,88.889,124.286,89.501,125.577,90.018"/>
	<pattern  id="SVGID_5_" xlink:href="#Unnamed_Pattern_5" patternTransform="matrix(0.469 0 0 -0.469 -1950.8055 -2028.4526)">
	</pattern>
	<path fill="url(#SVGID_5_)" d="M162.676,86.338c3.566-1.043,15.613-7.079,15.613-7.079s1.879-1.076,0.165-2.315
		c-11.883-4.154-18.402-7.178-18.402-7.178s-1.011-1.009-0.926,4.968c0.03,2.123,0.092,5.075,0.202,8.049
		C159.45,84.289,160.028,87.114,162.676,86.338"/>
	<path fill-rule="evenodd" clip-rule="evenodd" fill="#0090D3" d="M330.572,85.161c-38.338,0.432-72.964,8.512-80.504,15.564
		c-7.538,7.054,29.878,13.887,54.966,14.351c54.438,1.006,103.14-9.472,103.606-14.836
		C409.132,94.619,359.473,84.834,330.572,85.161"/>
	<path fill-rule="evenodd" clip-rule="evenodd" fill="#FDBB11" d="M253.673,85.986c0,0,68.392-31.377,83.543-37.01
		c13.992-5.201,21.848-10.063,33.648-4.432c7.774,3.71,46.252,32.698,76.53,43.13c31.204,10.749,18.321,10.862,4.607,9.577
		c-8.429-0.79-79.781-18.966-106.305-19.384c-59.537-0.939-84.975,9.872-88.671,10.533
		C251.796,89.338,250.856,87.729,253.673,85.986"/>
	<path fill-rule="evenodd" clip-rule="evenodd" fill="#70C5EF" d="M300.164,53.272c0,0-20.612-19.885-49.473-8.217
		c-28.861,11.666-99.939,65.551-126.344,46.208c0,0,19.547,38.4,88.426,5.987C234.004,87.26,274.865,60.089,300.164,53.272"/>
	<path fill="#1B75BB" d="M140.565,85.414c0,0-0.133-0.526-0.291-1.448c-0.088-0.461-0.169-1.021-0.262-1.661
		c-0.105-0.643-0.167-1.366-0.266-2.156c-0.086-0.791-0.143-1.647-0.225-2.553c-0.066-0.904-0.115-1.861-0.154-2.848
		c-0.074-1.975-0.085-4.084-0.029-6.193c0.008-0.528,0.038-1.055,0.056-1.58l0.04-0.802l0.026-0.406l0.008-0.323
		c-0.008-0.855-0.229-1.51-0.735-1.883c-0.257-0.192-0.594-0.33-0.972-0.407c-0.187-0.041-0.385-0.064-0.585-0.078
		c-0.23-0.019-0.457-0.039-0.682-0.058c-0.905-0.09-1.761-0.175-2.551-0.254c-0.792-0.113-1.518-0.214-2.162-0.306
		c-0.639-0.11-1.195-0.206-1.654-0.286c-0.913-0.172-1.435-0.287-1.435-0.287s0.53-0.058,1.458-0.128
		c0.922-0.057,2.238-0.137,3.818-0.233c0.791-0.046,1.648-0.094,2.555-0.146c0.828-0.05,2.114-0.111,3.258,0.593
		c0.572,0.35,1.064,0.902,1.355,1.516c0.299,0.612,0.423,1.258,0.462,1.873c0.011,0.153,0.014,0.306,0.014,0.455l-0.001,0.375
		l0.042,0.771c0.02,0.525,0.053,1.051,0.064,1.579c0.066,2.108,0.063,4.216-0.002,6.192c-0.035,0.989-0.079,1.945-0.142,2.852
		c-0.077,0.906-0.131,1.762-0.213,2.554c-0.096,0.792-0.154,1.517-0.256,2.159c-0.09,0.643-0.169,1.203-0.256,1.665
		C140.696,84.886,140.565,85.414,140.565,85.414"/>
	<path fill="#1B75BB" d="M163.096,32.78c-1.383-0.467-2.768-0.916-4.135-1.416c-1.369-0.49-2.737-0.975-4.088-1.503
		c-1.349-0.53-2.697-1.051-4.026-1.616c-1.331-0.556-2.638-1.163-3.934-1.772c-1.294-0.615-2.57-1.259-3.801-1.963
		c-0.612-0.358-1.223-0.714-1.813-1.095c-0.603-0.364-1.181-0.758-1.748-1.158c-0.569-0.4-1.109-0.827-1.636-1.263l-0.76-0.678
		l-0.547-0.547c-0.028-0.053-0.054-0.107-0.083-0.159c-0.092-0.155-0.198-0.305-0.321-0.453c-0.243-0.293-0.603-0.579-1.03-0.752
		c-0.429-0.184-0.908-0.226-1.301-0.174c-0.399,0.048-0.731,0.167-1.009,0.298c-0.287,0.131-0.515,0.28-0.736,0.433l-0.204,0.131
		c-0.085,0.056-0.128,0.072-0.193,0.111l-0.443,0.239l-0.5,0.258c-1.356,0.687-2.765,1.349-4.167,2.006l-8.428,3.987l-8.439,3.998
		c-1.402,0.678-2.811,1.34-4.224,1.994c-0.704,0.333-1.413,0.652-2.126,0.964c-0.715,0.31-1.425,0.626-2.18,0.829
		c0.788-0.025,1.559-0.222,2.328-0.386c0.761-0.19,1.521-0.39,2.276-0.604c0.758-0.207,1.503-0.448,2.252-0.68l2.238-0.717
		l4.431-1.548c1.467-0.54,2.926-1.1,4.385-1.661c0.728-0.284,1.462-0.555,2.183-0.856l2.169-0.891
		c1.443-0.6,2.888-1.197,4.323-1.826c1.431-0.642,2.855-1.283,4.289-1.982l0.542-0.271c0.187-0.097,0.35-0.174,0.589-0.31
		c0.103-0.058,0.236-0.129,0.314-0.181l0.288-0.182c0.086-0.055,0.166-0.105,0.232-0.136l0.238,0.395l0.852,0.827l0.887,0.767
		c0.605,0.486,1.219,0.955,1.851,1.387c0.632,0.431,1.27,0.85,1.923,1.23c0.651,0.39,1.321,0.735,1.987,1.084
		c1.337,0.685,2.7,1.297,4.072,1.873c0.685,0.293,1.381,0.555,2.077,0.811c0.698,0.25,1.396,0.503,2.098,0.733
		c1.403,0.47,2.81,0.917,4.238,1.291c1.425,0.381,2.85,0.753,4.289,1.064c1.441,0.305,2.879,0.607,4.333,0.834
		c0.727,0.116,1.453,0.228,2.181,0.323c0.731,0.082,1.46,0.184,2.197,0.202C165.871,33.696,164.484,33.229,163.096,32.78"/>
	<path fill="#1B75BB" d="M305.176,52.204c0,0-0.525-0.588-1.594-1.578c-1.071-0.992-2.693-2.394-4.934-3.944
		c-2.239-1.539-5.106-3.245-8.666-4.593c-3.545-1.338-7.836-2.287-12.537-2.025c-0.587,0.018-1.176,0.105-1.772,0.155
		c-0.594,0.068-1.189,0.181-1.794,0.271c-1.192,0.231-2.393,0.451-3.624,0.718c-2.456,0.513-4.988,1.11-7.538,1.916
		c-2.552,0.8-5.122,1.774-7.691,2.897c-2.556,1.148-5.143,2.377-7.711,3.738c-5.156,2.687-10.36,5.676-15.617,8.761
		c-5.258,3.086-10.54,6.306-15.883,9.409c-10.691,6.204-21.632,11.992-32.205,16.731c-10.563,4.738-20.778,8.439-29.832,10.368
		c-4.521,0.967-8.746,1.483-12.493,1.502c-3.748,0.025-7.002-0.49-9.552-1.299c-1.278-0.403-2.368-0.897-3.296-1.359
		c-0.912-0.495-1.657-0.968-2.235-1.39c-0.284-0.216-0.535-0.408-0.752-0.573c-0.205-0.18-0.377-0.33-0.517-0.452
		c-0.276-0.243-0.419-0.37-0.419-0.37c-0.094-0.082-0.236-0.082-0.327,0.005c-0.098,0.091-0.104,0.246-0.012,0.345l0.003,0.003
		c0,0,0.134,0.145,0.395,0.422c0.132,0.14,0.296,0.314,0.49,0.52c0.209,0.193,0.45,0.416,0.723,0.67
		c1.114,0.984,2.91,2.345,5.551,3.411c2.626,1.054,6.025,1.906,9.953,2.114c3.923,0.227,8.359,0.018,13.076-0.764
		c4.716-0.768,9.766-1.892,14.944-3.526c2.594-0.801,5.235-1.688,7.91-2.649c2.676-0.959,5.389-1.988,8.099-3.142
		c5.431-2.28,10.956-4.81,16.484-7.539c5.492-2.796,10.989-5.775,16.421-8.857l4.06-2.332c1.335-0.79,2.686-1.618,3.992-2.417
		c2.622-1.597,5.234-3.187,7.826-4.764c2.589-1.574,5.177-3.085,7.721-4.584c2.531-1.519,5.038-2.997,7.52-4.371
		c2.477-1.404,4.936-2.655,7.354-3.828c2.415-1.158,4.785-2.204,7.157-3.063c2.361-0.87,4.759-1.552,7.11-2.154
		c1.193-0.308,2.366-0.611,3.518-0.907c0.528-0.113,1.051-0.249,1.575-0.346c0.526-0.076,1.047-0.192,1.568-0.24
		c2.084-0.254,4.129-0.238,6.072-0.021c1.948,0.192,3.803,0.568,5.521,1.065c1.721,0.491,3.301,1.11,4.746,1.739
		c1.45,0.623,2.754,1.287,3.91,1.935c2.3,1.315,4.062,2.489,5.215,3.351c1.161,0.858,1.729,1.371,1.729,1.371l0.017,0.015
		c0.09,0.082,0.229,0.084,0.323,0C305.256,52.456,305.265,52.304,305.176,52.204"/>
	<path fill="#1B75BB" d="M501.228,97.772c-0.11-0.223-0.261-0.472-0.383-0.642c-0.1-0.136-0.207-0.269-0.317-0.396
		c-0.254-0.291-0.385-0.395-0.573-0.562c-0.199-0.171-0.297-0.233-0.455-0.348c-0.275-0.19-0.504-0.322-0.716-0.435
		c-0.214-0.114-0.406-0.204-0.597-0.289l-0.287-0.119l-0.353-0.132c-0.252-0.093-0.536-0.165-0.816-0.195l-0.108-0.012
		c-4.701-0.52-9.381-1.285-14.045-2.199c-4.658-0.953-9.282-2.123-13.87-3.449c-4.588-1.326-9.121-2.875-13.617-4.536
		c-4.495-1.663-8.939-3.488-13.326-5.449c-4.391-1.955-8.722-4.053-13.019-6.222c-4.292-2.181-8.527-4.482-12.699-6.894
		c-4.17-2.409-8.281-4.935-12.28-7.583c-0.991-0.662-1.999-1.341-2.944-2.005l-0.482-0.339l-0.395-0.255l-0.783-0.501l-1.566-0.99
		c-2.089-1.311-4.19-2.597-6.309-3.859c-4.245-2.509-20.958-13.809-29.075-14.056c-13.061-0.397-39.482,7.967-119.87,48.175
		c-3.197,1.599-6.457,3.042-9.653,4.548c-6.396,2.992-12.752,5.774-18.98,8.236c-6.206,2.516-12.277,4.748-18.119,6.542
		c-5.84,1.796-11.418,3.307-16.648,4.26c-5.223,0.941-10.065,1.572-14.377,1.649c-4.309,0.12-8.078-0.146-11.153-0.626
		c-3.066-0.497-5.475-1.097-7.058-1.625c-0.805-0.228-1.417-0.488-1.831-0.626c-0.414-0.148-0.627-0.225-0.627-0.225l-0.019-0.007
		c-0.118-0.042-0.25,0.012-0.302,0.129c-0.056,0.122-0.001,0.266,0.121,0.322c0,0,0.206,0.092,0.605,0.274
		c0.405,0.171,0.977,0.471,1.782,0.774c1.581,0.662,3.946,1.494,7.049,2.216c3.106,0.689,6.947,1.277,11.376,1.39
		c4.428,0.152,9.432-0.149,14.825-0.895c10.797-1.5,23.092-4.934,35.824-9.68c12.748-4.733,25.955-10.749,38.972-17.101
		c6.516-3.166,12.979-6.436,19.347-9.626c6.365-3.197,12.716-6.158,18.866-9.027c12.308-5.717,23.898-10.83,33.971-14.866
		c2.368-0.948,4.646-1.834,6.833-2.66c0.184-0.069,0.368-0.142,0.553-0.209c1.066-0.401,2.107-0.787,3.125-1.155
		c0.163-0.058,0.326-0.116,0.489-0.175c0.632-0.226,1.253-0.448,1.865-0.662c3.314-1.149,6.655-2.211,10.026-3.159
		c1.171-0.333,2.345-0.654,3.531-0.918l1.775-0.42c0.592-0.134,1.192-0.229,1.788-0.345c0.597-0.108,1.191-0.233,1.791-0.326
		l1.803-0.22l0.901-0.111l0.891-0.004l0.863,0.093l0.879,0.165c2.343,0.52,4.613,1.423,6.838,2.388
		c2.223,0.982,4.403,2.067,6.558,3.2c4.308,2.272,8.517,4.736,12.672,7.286c2.077,1.275,4.138,2.578,6.185,3.901
		c1.013,0.665,2.062,1.326,3.032,2.016c0.992,0.721,1.997,1.417,3.004,2.11c4.038,2.758,8.167,5.378,12.364,7.882
		c8.393,5.01,17.051,9.578,25.944,13.641c4.445,2.036,8.952,3.934,13.523,5.671c4.571,1.735,9.187,3.358,13.875,4.76
		c4.686,1.399,9.421,2.645,14.208,3.668c4.771,0.993,9.584,1.782,14.429,2.34c0.358,0.134,0.779,0.342,0.954,0.537
		c0.006,0.003,0.003,0.005,0.008,0.009c-0.068,0.069-0.253,0.156-0.421,0.226c-0.782,0.271-1.687,0.409-2.573,0.516
		c-1.789,0.207-3.606,0.298-5.422,0.361c-3.644,0.103-7.267,0.127-10.919-0.017c-7.266-0.277-14.521-1.071-21.751-1.987
		c-14.46-1.876-28.849-4.339-43.157-7.175c-7.152-1.425-14.286-2.958-21.364-4.694l-5.302-1.352
		c-1.77-0.443-3.533-0.906-5.326-1.288c-1.785-0.408-3.571-0.808-5.368-1.144c-1.794-0.355-3.585-0.721-5.391-1.006
		c-3.598-0.652-7.223-1.136-10.843-1.639c-3.635-0.395-7.263-0.848-10.911-1.09c-3.641-0.342-7.296-0.459-10.947-0.639
		c-1.825-0.086-3.654-0.064-5.481-0.102c-1.827-0.01-3.655-0.086-5.482-0.014c-3.654,0.094-7.31,0.113-10.957,0.393l-5.473,0.336
		l-5.455,0.547c-7.276,0.71-14.5,1.883-21.673,3.285c-1.804,0.299-3.574,0.764-5.355,1.171l-5.338,1.25
		c-0.444,0.107-0.892,0.202-1.332,0.32l-1.318,0.374l-2.637,0.751l-5.273,1.5c-1.759,0.497-3.496,1.086-5.212,1.742
		c-1.709,0.671-3.411,1.397-4.972,2.437c-0.766,0.527-1.539,1.125-2.031,2.025c-0.236,0.446-0.362,1.006-0.25,1.535
		c0.111,0.526,0.397,0.972,0.723,1.337c0.669,0.724,1.483,1.221,2.305,1.653c0.827,0.43,1.681,0.787,2.545,1.105
		c3.466,1.257,7.048,2.054,10.634,2.767c3.59,0.699,7.203,1.261,10.822,1.758c7.24,0.987,14.511,1.706,21.791,2.288
		c7.28,0.574,14.57,1.004,21.867,1.284c3.648,0.138,7.299,0.239,10.951,0.279c3.652,0.035,7.306,0.034,10.962-0.152
		c0.13-0.006,0.232-0.114,0.231-0.244c-0.001-0.135-0.112-0.242-0.246-0.241h-0.011c-7.284,0.087-14.569-0.407-21.839-0.864
		c-7.271-0.47-14.533-1.09-21.772-1.854c-7.238-0.768-14.459-1.676-21.61-2.842c-3.575-0.584-7.13-1.249-10.636-2.008
		c-3.492-0.761-6.995-1.625-10.149-2.845c-0.781-0.307-1.532-0.643-2.193-1.007c-0.486-0.257-0.929-0.565-1.212-0.814
		c0.026-0.023,0.049-0.045,0.078-0.07c0.196-0.17,0.452-0.365,0.753-0.551c1.202-0.767,2.799-1.437,4.399-2.021
		c1.616-0.58,3.288-1.113,5.028-1.568l5.224-1.377l2.608-0.693l1.303-0.352c0.436-0.11,0.878-0.196,1.316-0.295l5.272-1.156
		c1.761-0.376,3.506-0.808,5.287-1.078c7.079-1.278,14.199-2.333,21.363-2.928l5.37-0.463l5.384-0.252
		c3.586-0.217,7.18-0.22,10.772-0.275c1.795-0.057,3.591,0.036,5.386,0.061c1.795,0.054,3.591,0.048,5.384,0.148
		c3.585,0.21,7.173,0.357,10.745,0.725c3.58,0.268,7.138,0.745,10.701,1.163c3.548,0.527,7.098,1.033,10.618,1.703
		c1.767,0.296,3.517,0.671,5.268,1.033c0.872,0.187,1.76,0.351,2.622,0.546l2.584,0.59c1.703,0.367,3.488,0.841,5.255,1.29
		l5.321,1.376c7.177,1.785,14.353,3.355,21.554,4.814c7.198,1.458,14.416,2.807,21.655,4.051c7.238,1.256,14.514,2.323,21.829,3.239
		c7.317,0.899,14.668,1.685,22.234,1.948l2.736,0.069l0.772,0.016h0.695l1.391-0.001c1.858-0.011,3.722-0.039,5.608-0.106
		c1.894-0.072,3.785-0.17,5.829-0.412l0.786-0.106l0.832-0.141c0.311-0.068,0.573-0.11,0.925-0.203l0.515-0.142l0.609-0.206
		c0.26-0.105,0.504-0.209,0.803-0.364c0.19-0.106,0.377-0.22,0.557-0.34c0.081-0.054,0.177-0.119,0.336-0.251
		c0.139-0.116,0.274-0.239,0.403-0.368c0.149-0.157,0.204-0.192,0.417-0.475c0.177-0.239,0.337-0.499,0.472-0.767
		c0.124-0.235,0.259-0.576,0.352-0.99c0.089-0.39,0.132-0.806,0.119-1.177C501.703,98.973,501.436,98.13,501.228,97.772
		 M251.98,95.758C251.943,95.702,251.953,95.693,251.98,95.758"/>
	<path fill="#1B75BB" d="M606.552,98.581c-0.391-0.583-0.829-1.141-1.307-1.663c-0.486-0.514-1.004-0.999-1.541-1.46
		c-1.078-0.917-2.222-1.757-3.406-2.507c-2.369-1.503-4.836-2.754-7.208-4.036c-1.187-0.641-2.361-1.263-3.483-1.932
		c-1.12-0.671-2.194-1.372-3.194-2.104c-0.997-0.736-1.908-1.53-2.67-2.39c-0.754-0.866-1.418-1.749-1.881-2.72
		c-0.472-0.964-0.785-1.99-0.934-3.077c-0.047-0.282-0.057-0.516-0.088-0.761l-0.041-0.509l-0.01-0.124l-0.001-0.006l-0.002-0.062
		l-0.01-0.244l-0.081-1.966c-0.017-1.312-0.049-2.625,0.001-3.941c0.019-1.315,0.103-2.63,0.185-3.945
		c0.105-1.313,0.216-2.629,0.354-3.941c0.145-1.313,0.316-2.622,0.515-3.928c0.207-1.303,0.431-2.605,0.699-3.893
		c0.257-1.274,0.568-2.605,0.884-3.766l-0.043-0.006c0.115-0.322,0.14-0.593,0.156-0.75c0.13-1.191-0.598-2.344-1.785-2.709
		c-0.414-0.126-0.832-0.131-1.229-0.054l-0.354-0.077c-0.497-0.113-0.966-0.187-1.449-0.279c-0.959-0.173-1.903-0.31-2.85-0.447
		c-1.889-0.262-3.769-0.462-5.648-0.652c-3.753-0.333-7.499-0.607-11.241-0.742c-7.483-0.337-14.954-0.31-22.414-0.152
		c-7.454,0.175-14.912,0.458-22.346,0.768l-5.574,0.207l-1.394,0.051l-0.697,0.025c-0.233,0.006-0.53,0.026-0.785,0.064
		c-1.053,0.153-2.073,0.546-2.941,1.166c-0.869,0.619-1.561,1.445-2.062,2.335c-0.512,0.893-0.838,1.85-1.074,2.807
		c-0.228,0.95-0.339,1.956-0.424,2.881c-0.08,0.913-0.18,1.825-0.302,2.733c-0.871,7.271-3.853,14.231-8.716,19.545
		c-4.835,5.358-11.109,9.177-17.666,12.192l-2.479,1.109c-0.838,0.341-1.637,0.692-2.504,1.026l-1.301,0.5l-0.652,0.252l-0.563,0.2
		c-0.796,0.277-1.654,0.525-2.517,0.77c-3.473,0.964-7.088,1.743-10.696,2.477c-7.232,1.455-14.544,2.654-21.861,3.798
		c-7.322,1.123-14.668,2.126-22.028,3.006c-7.361,0.883-14.735,1.655-22.117,2.351c-7.382,0.69-14.776,1.257-22.176,1.709
		c-7.401,0.432-14.807,0.816-22.217,1.01c-7.411,0.204-14.825,0.252-22.235,0.16c-7.413-0.085-14.819-0.402-22.213-0.892
		c-7.394-0.504-14.771-1.262-22.107-2.328c-7.336-1.081-14.616-2.49-21.797-4.42c-0.133-0.035-0.272,0.038-0.316,0.171
		c-0.044,0.136,0.031,0.283,0.168,0.327l0.003,0.001c3.533,1.145,7.135,2.164,10.748,3.076c3.618,0.913,7.273,1.665,10.938,2.372
		c7.333,1.393,14.738,2.37,22.161,3.154c7.427,0.745,14.877,1.243,22.332,1.547c7.456,0.327,14.918,0.402,22.378,0.361
		c7.461-0.055,14.92-0.228,22.37-0.586c7.45-0.351,14.895-0.82,22.33-1.41c7.436-0.578,14.86-1.303,22.271-2.151
		c7.412-0.839,14.812-1.8,22.197-2.884c7.389-1.078,14.751-2.336,22.096-3.832c3.676-0.759,7.333-1.553,11.024-2.588
		c0.927-0.261,1.85-0.549,2.805-0.893l0.745-0.283l0.64-0.274l1.281-0.552c0.855-0.367,1.745-0.794,2.614-1.189
		c0.86-0.42,1.715-0.836,2.563-1.275c6.724-3.567,13.092-8.209,17.801-14.335c2.374-3.028,4.257-6.422,5.637-9.978
		c0.687-1.781,1.234-3.608,1.66-5.456c0.45-1.842,0.776-3.71,1.003-5.584c0.112-0.937,0.2-1.875,0.268-2.814
		c0.061-0.927,0.181-1.774,0.391-2.63c0.42-1.681,1.225-3.267,2.548-4.177c0.653-0.451,1.416-0.748,2.207-0.829
		c0.205-0.022,0.374-0.029,0.606-0.027l0.698-0.003l1.394-0.005l5.579-0.016c7.436,0.029,14.852,0.26,22.269,0.571
		c7.413,0.337,14.811,0.791,22.175,1.341l2.76,0.221l2.75,0.262c1.837,0.155,3.658,0.381,5.483,0.584
		c1.815,0.235,3.627,0.478,5.414,0.775c0.888,0.153,1.781,0.309,2.647,0.49c0.001,0.001,0.003,0.001,0.005,0.001
		c-0.126,0.506-0.249,1.011-0.367,1.525c-0.32,1.372-0.591,2.748-0.845,4.127c-0.245,1.381-0.461,2.767-0.649,4.156l-0.255,2.09
		l-0.184,2.098c-0.093,1.402-0.186,2.804-0.212,4.212c-0.058,1.406-0.03,2.816-0.015,4.226l0.079,2.116l0.01,0.264l0.019,0.319
		l0.039,0.508c0.053,0.43,0.114,0.874,0.193,1.261c0.3,1.599,0.862,3.187,1.662,4.629c0.798,1.444,1.812,2.746,2.97,3.814
		c1.149,1.081,2.393,1.976,3.658,2.751c1.261,0.786,2.565,1.419,3.865,1.996c1.303,0.571,2.597,1.097,3.895,1.57l3.865,1.369
		c1.276,0.448,2.549,0.883,3.785,1.378c1.241,0.486,2.475,0.983,3.646,1.603c0.586,0.306,1.16,0.639,1.712,1.006
		c0.559,0.358,1.107,0.744,1.62,1.18c0.088,0.075,0.218,0.086,0.318,0.02C606.6,98.863,606.632,98.701,606.552,98.581"/>
	<path fill="#1B75BB" d="M109.956,63.197c-0.032-0.138-0.086-0.316-0.162-0.5c-0.057-0.124-0.121-0.246-0.194-0.36
		c-0.092-0.144-0.265-0.341-0.425-0.476c-0.258-0.196-0.524-0.351-0.89-0.417c-0.376-0.07-0.674-0.029-0.956,0.05
		c-0.111,0.035-0.219,0.077-0.325,0.128c-0.097,0.047-0.166,0.09-0.246,0.142c-0.076,0.055-0.132,0.093-0.189,0.141
		c-1.301,0.858-2.591,1.728-3.871,2.615l-1.938,1.354c-0.633,0.47-1.324,0.855-1.975,1.298l-3.956,2.601
		c-0.65,0.449-1.332,0.847-2.009,1.251l-2.036,1.213c-1.366,0.794-2.703,1.645-4.111,2.366l-4.188,2.234
		c-1.4,0.738-2.842,1.391-4.263,2.091l-2.14,1.033l-2.174,0.96c-1.455,0.625-2.893,1.298-4.365,1.886l-4.421,1.761l-4.469,1.639
		c-1.487,0.558-3.006,1.023-4.509,1.54c-1.501,0.524-3.034,0.941-4.551,1.418c-1.522,0.462-3.062,0.856-4.594,1.286
		c-1.543,0.377-3.082,0.785-4.636,1.124c-0.774,0.184-1.552,0.349-2.332,0.503l-1.14,0.223c-0.366,0.069-0.732,0.154-1.143,0.195
		l-0.084,0.344c0.766-0.051,1.695-0.156,2.45-0.269c0.794-0.106,1.585-0.225,2.373-0.362c1.583-0.24,3.148-0.57,4.72-0.87
		c1.56-0.351,3.132-0.665,4.685-1.051c1.55-0.4,3.118-0.739,4.656-1.187c1.539-0.441,3.096-0.83,4.624-1.313
		c1.53-0.474,3.064-0.946,4.586-1.448l4.539-1.597c1.514-0.535,2.994-1.153,4.493-1.727l2.242-0.883l2.209-0.957
		c1.469-0.651,2.961-1.255,4.412-1.945l4.347-2.09c1.466-0.665,2.864-1.465,4.292-2.207c1.412-0.773,2.871-1.465,4.258-2.287
		l4.169-2.452c1.402-0.801,2.731-1.716,4.055-2.639c0.601-0.414,1.191-0.842,1.788-1.263c-0.003,1.064-0.022,2.119-0.004,3.195
		l0.081,3.427c0.033,1.141,0.041,2.284,0.125,3.42l0.204,3.41l0.124,1.704c0.046,0.567,0.074,1.134,0.134,1.703
		c0.277,2.275,0.549,4.542,0.916,6.787l0.353-0.026c0.193-2.279,0.292-4.539,0.396-6.79c0.022-0.563,0.076-1.129,0.112-1.694
		l0.122-1.693l0.199-3.383l0.425-6.737c0.049-1.119,0.144-2.257,0.214-3.384l0.056-0.825c0.026-0.312,0.045-0.633,0.051-0.975
		C110.062,64.067,110.077,63.743,109.956,63.197"/>
	<path fill="#1B75BB" d="M162.962,42.633c-0.261-0.199-0.628-0.178-0.864,0.049l-0.333,0.32c-0.224,0.211-0.576,0.58-0.98,1.136
		c-0.451,0.62-0.85,1.373-1.151,2.17c-0.149,0.388-0.302,0.848-0.464,1.39c-0.151,0.456-0.283,1.194-0.353,1.717
		c-0.181,1.132-0.319,2.358-0.442,3.509c-0.103,0.9,0.013,10.681,0.129,19.779c0.026,2.019,0.045,3.449,0.045,3.758l0.075,3.491
		c0.012,0.281,0.021,0.559,0.029,0.834c0.025,0.785,0.049,1.526,0.126,2.19c0.101,0.945,0.238,1.74,0.407,2.371
		c0.237,0.844,0.547,1.381,0.986,1.658c0.17,0.093,0.327,0.17,0.517,0.17c0.268,0,0.521-0.165,0.624-0.413
		c0.18-0.432-0.129-0.744-0.284-0.9c-0.001-0.001-0.134-0.184-0.2-0.875c-0.061-0.558-0.074-1.268-0.039-2.109
		c0.035-0.846,0.083-1.761,0.244-2.833c0.121-1.039,0.395-25.452,0.449-30.378l0.003-0.201c0.008-0.446,0.012-0.716,0.084-1.165
		c0.056-0.467,0.114-0.883,0.189-1.274c0.143-0.713,0.338-1.377,0.559-1.91c0.161-0.365,0.395-0.884,0.585-1.198l0.239-0.439
		C163.3,43.191,163.223,42.831,162.962,42.633"/>
</g>
</svg>
